# xmcd
#
# Track frame offsets:
#	150
#	13446
#	27028
#	39689
#	53479
#	66119
#	77630
#	91576
#	103222
#	117111
#	129907
#	140409
#	161463
#	178162
#	188508
#	198032
#	207488
#	217735
#	234382
#	245753
#
# Disc length: 3456
#
# Revision: 2
# Processed by: cddbd v1.5.1PL0 Copyright (c) Steve Scherf et al.
# Submitted via: Audio-CD-Archiv 2.10.438
# Normalized: r1:TDELIM( - )
#
DISCID=070d7e14
DTITLE=60 Songs From The Golden West - Country And Western Hits CD2
DYEAR=1900
DGENRE=country
TTITLE0=You Get Too Big For Your Boots - Freddy Casby
TTITLE1=If Only For A Moment - Linda Manning
TTITLE2=Warm Sweet Love - Rick Johnson
TTITLE3=Frankie And Johnny - Country Reunion
TTITLE4=Lookin' For A Cold Lonely Winter - Bobby Lord
TTITLE5=Cowhand Blues - The Nashville Guitars
TTITLE6=Doogie Ray - jack Key
TTITLE7=Willow Tree - Country Reunion
TTITLE8=The Hour Of Seperation - Billy Gramman
TTITLE9=Valley Forge - The Nashville Guitars
TTITLE10=The Night You Broke The News - david Dudley
TTITLE11=Can You Spare A Dime - Joan Winston
TTITLE12=A Lot Of Soul - Bobby Bare
TTITLE13=Bole Weevil - Country Reunion
TTITLE14=I'm Coming Back In Style - Buddy Meredith
TTITLE15=Cripple Creak - Country Reunion
TTITLE16=I was On My Way - Bud Logan
TTITLE17=Rye Whisky - Country Reunion
TTITLE18=The World Tomorrow - Al Terry
TTITLE19=Oregon Trail - The Nashville Guitars
EXTD=
EXTT0=
EXTT1=
EXTT2=
EXTT3=
EXTT4=
EXTT5=
EXTT6=
EXTT7=
EXTT8=
EXTT9=
EXTT10=
EXTT11=
EXTT12=
EXTT13=
EXTT14=
EXTT15=
EXTT16=
EXTT17=
EXTT18=
EXTT19=
PLAYORDER=
